<svg width="55" height="30" viewBox="0 0 55 30" fill="none" xmlns="http://www.w3.org/2000/svg"><path d="M11.462 11.951c-.04.199-.119 1.548-.119 1.826.278.04.714.04 1.19.04 1.27 0 2.937-.08 4.525-.199.198-.754.238-2.262.277-3.095.16-1.35.12-3.69.16-4.722 0-2.064-.239-3.294-1.509-4.207-.952-.635-1.984-.952-3.056-.952-2.024 0-4.127 1.031-5.436 2.063-2.739 2.262-4.921 4.96-6.35 8.373-.912 2.143-.952 5.953-.912 7.62.079 1.508.634 3.254 1.547 4.524 1.032 1.428 2.103 2.42 3.611 3.373 1.35.833 2.858 1.548 4.405 1.627 1.707.119 3.691-.476 5.08-1.19 1.786-.874 2.778-1.667 3.81-2.739-.913-1.825-2.58-4.286-3.294-5.198-1.111 1.071-2.103 1.865-3.373 2.341-.635.198-1.39.357-2.104.278-1.23-.08-2.38-1.151-2.936-2.143-.397-.754-.516-1.826-.516-2.699 0-.714.08-1.389.119-1.706.238-1.389.714-3.254 1.429-4.524.793-1.23 2.579-2.857 3.492-3.333 0 0 .119.754.119 2.023 0 .715-.04 1.588-.159 2.62Zm24.018 9.445c-.517-.714-1.826-3.095-2.223-3.73 2.183-1.746 3.175-2.857 4.207-4.683.515-.793.674-1.627.674-2.42 0-1.667-.913-3.135-1.548-3.93-.714-.952-1.27-1.983-5-3.888-1.984-.992-4.087-1.508-6.786-1.588h-2.38c-1.191 0-1.112.04-2.54.08-.318 2.262-.278 4.405-.239 6.508 0 0 .953-.119 1.429 0 .159 1.865-.04 9.485-.04 11.35.08 1.31-.317 7.58-.238 8.254 2.183.04 4.485.04 6.588-.12 0-1.944-.04-4.325-.04-6.388.913 1.508 2.183 4.008 3.572 5.873.396.556 1.11 1.706 1.905 2.46 1.031-.476 3.373-2.262 5.397-4.365-.755-.794-2.024-2.46-2.739-3.413Zm-8.334-6.786c-.16-2.222 0-4.88 0-6.905.317.04.555.08.754.12 1.389.238 2.46 1.07 3.413 2.023 1.746 1.826-2.739 4.405-4.167 4.762Zm26.584 5.239c-1.508.317-2.976.754-4.484.992-.953.159-1.905.397-2.818.555 0-5.119.12-10 .516-14.92.159-1.707.357-3.414.437-5.12-2.342.04-5.12.397-6.31.555-.119 3.136-.436 5.993-.436 8.85 0 3.968-.239 7.897-.239 11.826 0 1.944-.119 3.73.04 5.635.873-.04 1.746-.12 2.659-.198.992-.08 1.944-.199 2.976-.318 1.945-.238 3.81-.674 5.715-.992 1.032-.159 2.182-.278 3.214-.556-.317-3.135-.952-5.317-1.27-6.31Z" fill="#fff" fill-opacity=".85"/></svg>